<?xml version="1.0" encoding="UTF-8" standalone="no"?>
<svg
   xmlns:dc="http://purl.org/dc/elements/1.1/"
   xmlns:cc="http://creativecommons.org/ns#"
   xmlns:rdf="http://www.w3.org/1999/02/22-rdf-syntax-ns#"
   xmlns:svg="http://www.w3.org/2000/svg"
   xmlns="http://www.w3.org/2000/svg"
   viewBox="0 0 1000.4533 533.81335"
   height="100"
   width="250"
   xml:space="preserve"
   id="svg2"
   version="1.1"><metadata
     id="metadata8"><rdf:RDF><cc:Work
         rdf:about=""><dc:format>image/svg+xml</dc:format><dc:type
           rdf:resource="http://purl.org/dc/dcmitype/StillImage" /></cc:Work></rdf:RDF></metadata><defs
     id="defs6"><clipPath
       id="clipPath34"
       clipPathUnits="userSpaceOnUse"><path
         id="path32"
         d="m 5033.54,1834.46 c 0,0 -300.82,1003.78 -564.82,1479.58 -263.99,475.8 -417.47,699.1 -749,688.75 0,0 193.39,57.18 607.8,-771.63 414.4,-828.81 656.88,-1755.85 656.88,-1755.85 z" /></clipPath><linearGradient
       id="linearGradient40"
       spreadMethod="pad"
       gradientTransform="matrix(-1031.41,2111.94,2111.94,1031.41,4976.43,1855.63)"
       gradientUnits="userSpaceOnUse"
       y2="0"
       x2="1"
       y1="0"
       x1="0"><stop
         id="stop36"
         offset="0"
         style="stop-opacity:1;stop-color:#a5a3a4" /><stop
         id="stop38"
         offset="1"
         style="stop-opacity:1;stop-color:#2b3034" /></linearGradient></defs><g
     transform="matrix(1.3333333,0,0,-1.3333333,0,533.81333)"
     id="g10"><g
       transform="scale(0.1)"
       id="g12"><path
         id="path14"
         style="fill:#254a9b;fill-opacity:1;fill-rule:nonzero;stroke:none"
         d="m 2445.81,1475.31 c 0,0 183.72,98.3 473.46,152.28 l 0.05,0.03 2000.65,1870.6 -2474.16,-2022.91" /><path
         id="path16"
         style="fill:#254a9b;fill-opacity:1;fill-rule:nonzero;stroke:none"
         d="M 4959.87,3498.22 3937.8,1549.35 l 0.08,-0.08 c 80.72,-29.07 162.68,-64.58 245.36,-107.73 l 776.63,2056.68" /><path
         id="path18"
         style="fill:#254a9b;fill-opacity:1;fill-rule:nonzero;stroke:none"
         d="M 4863.94,3366.99 3670.9,1624.07 l 0.03,-0.06 c 64.07,-12.98 129.44,-29.72 195.79,-50.72 l 997.22,1793.7" /><path
         id="path20"
         style="fill:#254a9b;fill-opacity:1;fill-rule:nonzero;stroke:none"
         d="m 3388.05,1659.61 0.09,-0.05 c 67.25,-3.4 136.76,-10.43 208.1,-21.94 l 0.15,0.02 1239.93,1729.35 -1448.27,-1707.38" /><path
         id="path22"
         style="fill:#254a9b;fill-opacity:1;fill-rule:nonzero;stroke:none"
         d="m 3044.8,1647 0.04,-0.02 c 71.98,8.86 148.82,14.43 229.7,15.04 l 0.08,0.03 L 4808.69,3366.99 3044.8,1647" /><path
         id="path24"
         style="fill:#767e82;fill-opacity:1;fill-rule:nonzero;stroke:none"
         d="m 2445.81,1475.31 c 0,0 494.22,1755.85 791.97,2065.89 297.76,310.03 524.55,334.59 688.96,141.2 0,0 -216.23,67.53 -498.64,-435.89 -282.41,-503.43 -441.54,-1329.08 -441.54,-1329.08 l -540.75,-442.12" /><path
         id="path26"
         style="fill:#c5c9d3;fill-opacity:1;fill-rule:nonzero;stroke:none"
         d="m 2914.07,2903.93 c 0,0 179.44,576.98 434.22,901.81 254.78,324.83 549.47,183.63 669.19,33.22 119.72,-150.42 310.04,-607.8 310.04,-607.8 0,0 -270.13,521.84 -620.08,521.84 -349.94,0 -629,-479.49 -793.37,-849.07" /><g
         id="g28"><g
           clip-path="url(#clipPath34)"
           id="g30"><path
             id="path42"
             style="fill:url(#linearGradient40);fill-opacity:1;fill-rule:nonzero;stroke:none"
             d="m 5033.54,1834.46 c 0,0 -300.82,1003.78 -564.82,1479.58 -263.99,475.8 -417.47,699.1 -749,688.75 0,0 193.39,57.18 607.8,-771.63 414.4,-828.81 656.88,-1755.85 656.88,-1755.85 l 49.14,359.15" /></g></g><path
         id="path44"
         style="fill:#254a9b;fill-opacity:1;fill-rule:nonzero;stroke:none"
         d="m 2394.34,977.461 h 55.05 c 11.71,0 20.86,1.211 27.47,3.629 6.61,2.43 11.62,6.301 15.05,11.629 3.43,5.32 5.15,11.101 5.15,17.361 0,9.15 -3.32,16.68 -9.97,22.58 -6.64,5.89 -17.14,8.84 -31.48,8.84 h -61.27 z M 2368.72,869.32 v 193.57 h 85.82 c 17.26,0 30.37,-1.74 39.36,-5.21 8.97,-3.48 16.15,-9.62 21.52,-18.42 5.36,-8.81 8.05,-18.53 8.05,-29.18 0,-13.74 -4.45,-25.31 -13.33,-34.728 -8.9,-9.422 -22.63,-15.403 -41.2,-17.961 6.77,-3.25 11.93,-6.469 15.44,-9.641 7.49,-6.859 14.58,-15.441 21.26,-25.738 l 33.68,-52.692 h -32.22 l -25.62,40.282 c -7.49,11.609 -13.65,20.5 -18.48,26.668 -4.85,6.16 -9.18,10.472 -13.01,12.929 -3.83,2.473 -7.72,4.18 -11.69,5.16 -2.9,0.61 -7.66,0.922 -14.26,0.922 h -29.7 V 869.32 h -25.62" /><path
         id="path46"
         style="fill:#254a9b;fill-opacity:1;fill-rule:nonzero;stroke:none"
         d="m 2575.47,963.199 c 0,-23.328 6.27,-41.699 18.81,-55.117 12.55,-13.434 28.28,-20.141 47.2,-20.141 19.28,0 35.15,6.778 47.6,20.329 12.46,13.562 18.69,32.8 18.69,57.71 0,15.75 -2.66,29.5 -7.98,41.26 -5.34,11.75 -13.13,20.86 -23.38,27.33 -10.26,6.47 -21.76,9.7 -34.53,9.7 -18.13,0 -33.74,-6.22 -46.8,-18.68 -13.08,-12.45 -19.61,-33.25 -19.61,-62.391 z m -26.41,0.403 c 0,32.128 8.63,57.278 25.88,75.458 17.25,18.18 39.52,27.26 66.81,27.26 17.87,0 33.98,-4.26 48.33,-12.8 14.34,-8.54 25.28,-20.45 32.81,-35.72 7.53,-15.27 11.29,-32.589 11.29,-51.948 0,-19.641 -3.97,-37.204 -11.89,-52.692 -7.91,-15.488 -19.15,-27.219 -33.67,-35.191 -14.52,-7.969 -30.19,-11.949 -47,-11.949 -18.22,0 -34.51,4.402 -48.86,13.199 -14.34,8.812 -25.22,20.82 -32.61,36.051 -7.4,15.23 -11.09,31.339 -11.09,48.332" /><path
         id="path48"
         style="fill:#254a9b;fill-opacity:1;fill-rule:nonzero;stroke:none"
         d="m 2814.96,869.32 v 82 l -74.6,111.57 h 31.16 l 38.17,-58.36 c 7.04,-10.921 13.59,-21.831 19.67,-32.749 5.81,10.129 12.85,21.528 21.13,34.199 l 37.5,56.91 h 29.83 l -77.24,-111.57 v -82 h -25.62" /><path
         id="path50"
         style="fill:#254a9b;fill-opacity:1;fill-rule:nonzero;stroke:none"
         d="m 2948.56,948.809 h 65.63 l -20.21,53.611 c -6.16,16.28 -10.74,29.66 -13.73,40.14 -2.47,-12.41 -5.94,-24.74 -10.43,-36.97 z m -55.85,-79.489 74.34,193.57 h 27.6 l 79.22,-193.57 h -29.18 l -22.58,58.629 h -80.94 l -21.26,-58.629 h -27.2" /><path
         id="path52"
         style="fill:#254a9b;fill-opacity:1;fill-rule:nonzero;stroke:none"
         d="m 3214.59,1062.89 h 25.62 V 951.059 c 0,-19.457 -2.2,-34.911 -6.61,-46.348 -4.39,-11.449 -12.34,-20.75 -23.82,-27.93 -11.49,-7.172 -26.57,-10.761 -45.23,-10.761 -18.13,0 -32.97,3.128 -44.5,9.378 -11.53,6.25 -19.76,15.293 -24.69,27.133 -4.93,11.84 -7.39,28.008 -7.39,48.528 v 111.831 h 25.61 V 951.191 c 0,-16.82 1.57,-29.211 4.69,-37.171 3.13,-7.969 8.5,-14.11 16.11,-18.418 7.61,-4.313 16.92,-6.473 27.92,-6.473 18.84,0 32.27,4.262 40.28,12.801 8.01,8.539 12.01,24.961 12.01,49.261 v 111.699" /><path
         id="path54"
         style="fill:#254a9b;fill-opacity:1;fill-rule:nonzero;stroke:none"
         d="m 3275.3,869.32 v 193.57 h 38.56 l 45.82,-137.05 c 4.23,-12.77 7.3,-22.32 9.25,-28.66 2.19,7.039 5.62,17.39 10.29,31.031 l 46.35,134.679 h 34.46 V 869.32 h -24.69 v 162.01 l -56.25,-162.01 h -23.11 L 3300,1034.11 V 869.32 h -24.7" /><path
         id="path56"
         style="fill:#254a9b;fill-opacity:1;fill-rule:nonzero;stroke:none"
         d="m 3495.13,869.32 v 193.57 h 139.97 v -22.84 h -114.36 v -59.288 h 107.09 V 958.051 H 3520.74 V 892.16 h 118.84 v -22.84 h -144.45" /><path
         id="path58"
         style="fill:#254a9b;fill-opacity:1;fill-rule:nonzero;stroke:none"
         d="m 3762.19,892.16 h 41.33 c 12.76,0 22.78,1.199 30.03,3.57 7.27,2.379 13.06,5.719 17.37,10.04 6.07,6.07 10.81,14.23 14.2,24.492 3.39,10.25 5.08,22.687 5.08,37.297 0,20.242 -3.32,35.811 -9.97,46.671 -6.65,10.88 -14.72,18.16 -24.22,21.86 -6.88,2.64 -17.92,3.96 -33.15,3.96 h -40.67 z m -25.62,-22.84 v 193.57 h 66.68 c 15.06,0 26.54,-0.92 34.46,-2.77 11.1,-2.56 20.56,-7.17 28.39,-13.86 10.22,-8.63 17.86,-19.66 22.91,-33.08 5.06,-13.418 7.6,-28.77 7.6,-46.02 0,-14.699 -1.72,-27.73 -5.15,-39.078 -3.43,-11.363 -7.84,-20.75 -13.21,-28.191 -5.37,-7.442 -11.24,-13.289 -17.62,-17.559 -6.38,-4.273 -14.09,-7.512 -23.11,-9.711 -9.02,-2.199 -19.39,-3.301 -31.09,-3.301 h -69.86" /><path
         id="path60"
         style="fill:#254a9b;fill-opacity:1;fill-rule:nonzero;stroke:none"
         d="m 4052.12,1062.89 h 25.61 V 951.059 c 0,-19.457 -2.19,-34.911 -6.6,-46.348 -4.39,-11.449 -12.34,-20.75 -23.83,-27.93 -11.48,-7.172 -26.56,-10.761 -45.22,-10.761 -18.13,0 -32.97,3.128 -44.5,9.378 -11.54,6.25 -19.76,15.293 -24.69,27.133 -4.93,11.84 -7.39,28.008 -7.39,48.528 v 111.831 h 25.61 V 951.191 c 0,-16.82 1.57,-29.211 4.69,-37.171 3.13,-7.969 8.5,-14.11 16.1,-18.418 7.62,-4.313 16.93,-6.473 27.93,-6.473 18.84,0 32.27,4.262 40.28,12.801 8.01,8.539 12.01,24.961 12.01,49.261 v 111.699" /><path
         id="path62"
         style="fill:#254a9b;fill-opacity:1;fill-rule:nonzero;stroke:none"
         d="m 4181.21,869.32 v 193.57 h 38.56 l 45.82,-137.05 c 4.22,-12.77 7.3,-22.32 9.24,-28.66 2.2,7.039 5.63,17.39 10.3,31.031 l 46.34,134.679 h 34.47 V 869.32 h -24.69 v 162.01 L 4285,869.32 h -23.12 l -55.97,164.79 V 869.32 h -24.7" /><path
         id="path64"
         style="fill:#254a9b;fill-opacity:1;fill-rule:nonzero;stroke:none"
         d="m 4435.1,948.809 h 65.62 l -20.2,53.611 c -6.16,16.28 -10.74,29.66 -13.73,40.14 -2.47,-12.41 -5.95,-24.74 -10.43,-36.97 z m -55.86,-79.489 74.34,193.57 h 27.6 l 79.22,-193.57 h -29.18 l -22.58,58.629 h -80.93 l -21.26,-58.629 h -27.21" /><path
         id="path66"
         style="fill:#254a9b;fill-opacity:1;fill-rule:nonzero;stroke:none"
         d="m 4600.12,977.461 h 55.06 c 11.7,0 20.86,1.211 27.46,3.629 6.61,2.43 11.62,6.301 15.06,11.629 3.42,5.32 5.14,11.101 5.14,17.361 0,9.15 -3.32,16.68 -9.97,22.58 -6.64,5.89 -17.14,8.84 -31.48,8.84 h -61.27 z M 4574.5,869.32 v 193.57 h 85.82 c 17.26,0 30.37,-1.74 39.36,-5.21 8.97,-3.48 16.15,-9.62 21.52,-18.42 5.36,-8.81 8.05,-18.53 8.05,-29.18 0,-13.74 -4.45,-25.31 -13.33,-34.728 -8.9,-9.422 -22.63,-15.403 -41.2,-17.961 6.77,-3.25 11.93,-6.469 15.45,-9.641 7.48,-6.859 14.57,-15.441 21.26,-25.738 l 33.67,-52.692 h -32.22 l -25.61,40.282 c -7.49,11.609 -13.66,20.5 -18.49,26.668 -4.84,6.16 -9.18,10.472 -13.01,12.929 -3.83,2.473 -7.72,4.18 -11.69,5.16 -2.9,0.61 -7.65,0.922 -14.26,0.922 h -29.7 V 869.32 h -25.62" /><path
         id="path68"
         style="fill:#254a9b;fill-opacity:1;fill-rule:nonzero;stroke:none"
         d="m 4781.25,963.199 c 0,-23.328 6.27,-41.699 18.81,-55.117 12.55,-13.434 28.28,-20.141 47.21,-20.141 19.27,0 35.14,6.778 47.59,20.329 12.46,13.562 18.69,32.8 18.69,57.71 0,15.75 -2.66,29.5 -7.98,41.26 -5.34,11.75 -13.13,20.86 -23.38,27.33 -10.26,6.47 -21.76,9.7 -34.52,9.7 -18.14,0 -33.74,-6.22 -46.81,-18.68 -13.08,-12.45 -19.61,-33.25 -19.61,-62.391 z m -26.41,0.403 c 0,32.128 8.63,57.278 25.88,75.458 17.25,18.18 39.52,27.26 66.81,27.26 17.87,0 33.98,-4.26 48.33,-12.8 14.35,-8.54 25.28,-20.45 32.81,-35.72 7.53,-15.27 11.29,-32.589 11.29,-51.948 0,-19.641 -3.96,-37.204 -11.88,-52.692 -7.92,-15.488 -19.15,-27.219 -33.68,-35.191 -14.52,-7.969 -30.19,-11.949 -47,-11.949 -18.22,0 -34.51,4.402 -48.86,13.199 -14.34,8.812 -25.22,20.82 -32.61,36.051 -7.39,15.23 -11.09,31.339 -11.09,48.332" /><path
         id="path70"
         style="fill:#254a9b;fill-opacity:1;fill-rule:nonzero;stroke:none"
         d="m 5104.33,937.191 25.61,-6.472 c -5.37,-21.039 -15.03,-37.078 -28.98,-48.129 -13.95,-11.051 -31.01,-16.57 -51.17,-16.57 -20.85,0 -37.83,4.25 -50.89,12.742 -13.08,8.5 -23.03,20.797 -29.85,36.91 -6.82,16.109 -10.23,33.398 -10.23,51.887 0,20.16 3.85,37.741 11.55,52.751 7.71,15.01 18.66,26.41 32.88,34.2 14.22,7.79 29.87,11.68 46.95,11.68 19.36,0 35.64,-4.92 48.84,-14.78 13.21,-9.87 22.41,-23.73 27.6,-41.6 l -25.21,-5.94 c -4.5,14.08 -11.01,24.34 -19.55,30.76 -8.54,6.43 -19.27,9.64 -32.21,9.64 -14.88,0 -27.32,-3.56 -37.31,-10.69 -9.99,-7.13 -17.01,-16.7 -21.06,-28.72 -4.04,-12.008 -6.08,-24.411 -6.08,-37.169 0,-16.461 2.41,-30.832 7.2,-43.109 4.8,-12.281 12.26,-21.453 22.38,-27.531 10.12,-6.071 21.09,-9.11 32.89,-9.11 14.34,0 26.49,4.141 36.43,12.411 9.95,8.269 16.69,20.546 20.21,36.839" /><path
         id="path72"
         style="fill:#254a9b;fill-opacity:1;fill-rule:nonzero;stroke:none"
         d="M 0,446.789 V 688.762 H 73.1133 L 117.02,523.711 160.43,688.762 h 73.281 V 446.789 H 188.32 V 637.262 L 140.293,446.789 H 93.2539 L 45.3828,637.262 V 446.789 H 0" /><path
         id="path74"
         style="fill:#254a9b;fill-opacity:1;fill-rule:nonzero;stroke:none"
         d="m 272.297,446.789 v 241.973 h 48.855 V 446.789 h -48.855" /><path
         id="path76"
         style="fill:#254a9b;fill-opacity:1;fill-rule:nonzero;stroke:none"
         d="m 359.734,446.789 v 241.973 h 47.539 l 99.028,-161.59 v 161.59 h 45.387 V 446.789 h -49.02 L 405.129,604.582 V 446.789 h -45.395" /><path
         id="path78"
         style="fill:#254a9b;fill-opacity:1;fill-rule:nonzero;stroke:none"
         d="m 593.418,446.789 v 241.973 h 48.855 V 446.789 h -48.855" /><path
         id="path80"
         style="fill:#254a9b;fill-opacity:1;fill-rule:nonzero;stroke:none"
         d="m 667.988,525.52 47.532,4.621 c 2.859,-15.95 8.668,-27.672 17.41,-35.153 8.75,-7.476 20.547,-11.218 35.41,-11.218 15.73,0 27.59,3.32 35.566,9.98 7.981,6.66 11.961,14.441 11.961,23.359 0,5.711 -1.679,10.582 -5.027,14.602 -3.36,4.019 -9.219,7.508 -17.578,10.48 -5.723,1.981 -18.77,5.5 -39.121,10.559 -26.192,6.492 -44.563,14.469 -55.125,23.941 C 684.16,590 676.73,606.23 676.73,625.379 c 0,12.32 3.497,23.84 10.489,34.582 6.98,10.719 17.051,18.891 30.203,24.5 13.144,5.621 29.016,8.418 47.617,8.418 30.359,0 53.223,-6.66 68.574,-19.969 15.352,-13.308 23.407,-31.078 24.18,-53.308 l -48.855,-2.141 c -2.09,12.43 -6.575,21.371 -13.45,26.809 -6.875,5.449 -17.195,8.179 -30.945,8.179 -14.199,0 -25.313,-2.918 -33.344,-8.75 -5.176,-3.738 -7.761,-8.75 -7.761,-15.019 0,-5.731 2.421,-10.621 7.265,-14.688 6.16,-5.183 21.121,-10.57 44.895,-16.183 23.765,-5.61 41.343,-11.411 52.73,-17.411 11.391,-6 20.305,-14.187 26.738,-24.589 6.438,-10.399 9.661,-23.25 9.661,-38.539 0,-13.872 -3.86,-26.848 -11.551,-38.95 -7.707,-12.109 -18.606,-21.101 -32.688,-26.988 -14.082,-5.883 -31.633,-8.832 -52.644,-8.832 -30.598,0 -54.082,7.07 -70.481,21.211 -16.394,14.141 -26.191,34.738 -29.375,61.809" /><path
         id="path82"
         style="fill:#254a9b;fill-opacity:1;fill-rule:nonzero;stroke:none"
         d="M 951.848,446.789 V 647.82 h -71.797 v 40.942 H 1072.32 V 647.82 h -71.63 V 446.789 h -48.842" /><path
         id="path84"
         style="fill:#254a9b;fill-opacity:1;fill-rule:nonzero;stroke:none"
         d="m 1213.09,702.621 h -29.22 l -45.55,49.348 h 51.98 z M 1095.4,446.789 v 241.973 h 179.41 V 647.82 h -130.55 v -53.64 h 121.47 v -40.77 h -121.47 v -65.851 h 135.17 v -40.77 H 1095.4" /><path
         id="path86"
         style="fill:#254a9b;fill-opacity:1;fill-rule:nonzero;stroke:none"
         d="m 1361.44,586.43 h 36.14 c 23.44,0 38.07,0.992 43.9,2.968 5.83,1.981 10.4,5.391 13.71,10.231 3.3,4.84 4.95,10.891 4.95,18.152 0,8.149 -2.18,14.719 -6.53,19.731 -4.34,5.008 -10.48,8.168 -18.4,9.488 -3.96,0.551 -15.84,0.82 -35.65,0.82 h -38.12 z m -48.86,-139.641 v 241.973 h 102.83 c 25.85,0 44.64,-2.18 56.36,-6.524 11.72,-4.347 21.1,-12.078 28.14,-23.187 7.04,-11.121 10.57,-23.821 10.57,-38.129 0,-18.16 -5.34,-33.152 -16.02,-44.981 -10.67,-11.82 -26.63,-19.281 -47.86,-22.359 10.57,-6.16 19.28,-12.934 26.16,-20.301 6.88,-7.383 16.15,-20.472 27.82,-39.289 l 29.54,-47.203 h -58.43 l -35.32,52.652 c -12.54,18.821 -21.13,30.668 -25.75,35.571 -4.62,4.898 -9.52,8.25 -14.69,10.07 -5.17,1.816 -13.37,2.719 -24.59,2.719 h -9.9 V 446.789 h -48.86" /><path
         id="path88"
         style="fill:#254a9b;fill-opacity:1;fill-rule:nonzero;stroke:none"
         d="m 1548.07,446.789 v 241.973 h 179.41 V 647.82 h -130.56 v -53.64 h 121.48 v -40.77 h -121.48 v -65.851 h 135.18 v -40.77 h -184.03" /><path
         id="path90"
         style="fill:#254a9b;fill-opacity:1;fill-rule:nonzero;stroke:none"
         d="M 1899.23,647.82 V 487.559 h 36.47 c 13.65,0 23.5,0.773 29.55,2.312 7.92,1.981 14.5,5.34 19.72,10.07 5.23,4.731 9.49,12.508 12.79,23.348 3.3,10.84 4.95,25.609 4.95,44.32 0,18.7 -1.65,33.063 -4.95,43.082 -3.3,10.008 -7.92,17.821 -13.86,23.438 -5.94,5.609 -13.48,9.402 -22.61,11.383 -6.83,1.539 -20.2,2.308 -40.11,2.308 z m -48.86,40.942 h 89.3 c 20.13,0 35.49,-1.551 46.04,-4.621 14.2,-4.192 26.36,-11.61 36.48,-22.289 10.12,-10.672 17.83,-23.743 23.11,-39.204 5.28,-15.457 7.92,-34.519 7.92,-57.187 0,-19.91 -2.48,-37.082 -7.43,-51.492 -6.04,-17.61 -14.69,-31.848 -25.91,-42.75 -8.47,-8.25 -19.92,-14.688 -34.33,-19.309 -10.78,-3.41 -25.2,-5.121 -43.25,-5.121 h -91.93 v 241.973" /><path
         id="path92"
         style="fill:#254a9b;fill-opacity:1;fill-rule:nonzero;stroke:none"
         d="m 2086.19,446.789 v 241.973 h 179.42 V 647.82 h -130.56 v -53.64 h 121.47 v -40.77 h -121.47 v -65.851 h 135.17 v -40.77 h -184.03" /><path
         id="path94"
         style="fill:#254a9b;fill-opacity:1;fill-rule:nonzero;stroke:none"
         d="m 2389.98,446.789 v 239.992 h 48.86 V 487.559 h 121.47 v -40.77 h -170.33" /><path
         id="path96"
         style="fill:#254a9b;fill-opacity:1;fill-rule:nonzero;stroke:none"
         d="m 2586.04,602.762 -8.75,45.058 v 40.942 h 50.5 V 647.82 l -7.59,-45.058 h -34.16" /><path
         id="path98"
         style="fill:#254a9b;fill-opacity:1;fill-rule:nonzero;stroke:none"
         d="m 2720.68,702.621 22.78,49.348 h 51.99 l -45.38,-49.348 z m -62.06,-255.832 v 241.973 h 179.42 V 647.82 h -130.56 v -53.64 h 121.48 v -40.77 h -121.48 v -65.851 h 135.18 v -40.77 h -184.04" /><path
         id="path100"
         style="fill:#254a9b;fill-opacity:1;fill-rule:nonzero;stroke:none"
         d="m 3031.11,505.051 c 6.27,7.379 10.98,16.289 14.11,26.738 3.14,10.461 4.71,22.453 4.71,35.981 0,27.949 -6.16,48.832 -18.48,62.64 -12.33,13.809 -28.45,20.711 -48.36,20.711 -19.93,0 -36.07,-6.922 -48.45,-20.789 -12.37,-13.863 -18.57,-34.723 -18.57,-62.562 0,-28.282 6.2,-49.43 18.57,-63.461 12.38,-14.028 28.04,-21.039 46.96,-21.039 7.04,0 13.7,1.152 19.97,3.46 -9.9,6.5 -19.97,11.559 -30.2,15.192 l 13.7,27.898 c 16.06,-5.511 31.4,-13.761 46.04,-24.769 z m 39.29,-27.563 c 11.99,-8.578 25.03,-15.398 39.11,-20.457 l -17.99,-34.5 c -7.37,2.199 -14.58,5.231 -21.62,9.078 -1.54,0.77 -12.38,7.922 -32.52,21.45 -15.84,-6.93 -33.39,-10.387 -52.64,-10.387 -37.2,0 -66.33,10.937 -87.4,32.84 -21.07,21.898 -31.61,52.648 -31.61,92.258 0,39.511 10.57,70.23 31.69,92.191 21.13,21.949 49.8,32.918 86,32.918 35.87,0 64.3,-10.969 85.33,-32.918 21.02,-21.961 31.52,-52.68 31.52,-92.191 0,-20.899 -2.92,-39.282 -8.75,-55.122 -4.4,-12.109 -11.44,-23.828 -21.12,-35.16" /><path
         id="path102"
         style="fill:#254a9b;fill-opacity:1;fill-rule:nonzero;stroke:none"
         d="m 3129.78,688.762 h 48.85 V 557.711 c 0,-20.801 0.61,-34.281 1.82,-40.441 2.09,-9.911 7.07,-17.86 14.94,-23.848 7.86,-6 18.62,-9 32.27,-9 13.86,0 24.31,2.84 31.35,8.508 7.04,5.66 11.28,12.621 12.71,20.871 1.43,8.258 2.15,21.949 2.15,41.097 v 133.864 h 48.85 v -127.09 c 0,-29.051 -1.31,-49.57 -3.96,-61.57 -2.64,-11.993 -7.51,-22.11 -14.6,-30.364 -7.1,-8.258 -16.59,-14.828 -28.48,-19.726 -11.88,-4.891 -27.4,-7.34 -46.54,-7.34 -23.1,0 -40.63,2.668 -52.57,8 -11.94,5.34 -21.37,12.269 -28.31,20.797 -6.92,8.531 -11.49,17.472 -13.69,26.82 -3.19,13.859 -4.79,34.332 -4.79,61.402 v 129.071" /><path
         id="path104"
         style="fill:#254a9b;fill-opacity:1;fill-rule:nonzero;stroke:none"
         d="m 3364.28,446.789 v 241.973 h 48.85 V 446.789 h -48.85" /><path
         id="path106"
         style="fill:#254a9b;fill-opacity:1;fill-rule:nonzero;stroke:none"
         d="m 3500.09,647.82 v -68.66 h 26.74 c 19.25,0 32.13,1.27 38.62,3.801 6.49,2.531 11.58,6.488 15.26,11.879 3.69,5.402 5.53,11.66 5.53,18.82 0,8.801 -2.58,16.059 -7.75,21.789 -5.18,5.711 -11.72,9.289 -19.64,10.723 -5.84,1.098 -17.56,1.648 -35.16,1.648 z m -48.86,-201.031 v 241.973 h 78.4 c 29.72,0 49.07,-1.223 58.1,-3.641 13.86,-3.629 25.47,-11.519 34.83,-23.68 9.34,-12.16 14.02,-27.859 14.02,-47.121 0,-14.859 -2.69,-27.351 -8.08,-37.468 -5.39,-10.122 -12.24,-18.071 -20.55,-23.852 -8.31,-5.77 -16.76,-9.602 -25.33,-11.469 -11.67,-2.312 -28.56,-3.461 -50.68,-3.461 h -31.85 v -91.281 h -48.86" /><path
         id="path108"
         style="fill:#254a9b;fill-opacity:1;fill-rule:nonzero;stroke:none"
         d="m 3668.23,446.789 v 241.973 h 179.42 V 647.82 h -130.56 v -53.64 h 121.47 v -40.77 h -121.47 v -65.851 h 135.18 v -40.77 h -184.04" /><path
         id="path110"
         style="fill:#254a9b;fill-opacity:1;fill-rule:nonzero;stroke:none"
         d="m 3884.59,446.789 v 241.973 h 73.12 l 43.9,-165.051 43.41,165.051 h 73.28 V 446.789 h -45.39 v 190.473 l -48.03,-190.473 h -47.04 l -47.87,190.473 V 446.789 h -45.38" /><path
         id="path112"
         style="fill:#254a9b;fill-opacity:1;fill-rule:nonzero;stroke:none"
         d="m 4158.37,446.789 v 241.973 h 179.41 V 647.82 h -130.55 v -53.64 h 121.47 v -40.77 h -121.47 v -65.851 h 135.17 v -40.77 h -184.03" /><path
         id="path114"
         style="fill:#254a9b;fill-opacity:1;fill-rule:nonzero;stroke:none"
         d="m 4375.87,446.789 v 241.973 h 47.54 l 99.02,-161.59 v 161.59 h 45.39 V 446.789 h -49.02 l -97.54,157.793 V 446.789 h -45.39" /><path
         id="path116"
         style="fill:#254a9b;fill-opacity:1;fill-rule:nonzero;stroke:none"
         d="M 4665.51,446.789 V 647.82 h -71.8 v 40.942 h 192.28 V 647.82 h -71.63 V 446.789 h -48.85" /><path
         id="path118"
         style="fill:#254a9b;fill-opacity:1;fill-rule:nonzero;stroke:none"
         d="m 4770.11,493.172 h 46.37 V 460 c 0,-13.43 -1.15,-24.02 -3.46,-31.781 -2.31,-7.75 -6.68,-14.707 -13.12,-20.879 -6.43,-6.16 -14.61,-11 -24.51,-14.52 l -9.08,19.149 c 9.35,3.082 16.01,7.32 19.97,12.703 3.96,5.398 6.05,12.769 6.28,22.117 h -22.45 v 46.383" /><path
         id="path120"
         style="fill:#254a9b;fill-opacity:1;fill-rule:nonzero;stroke:none"
         d="M 4991.21,647.82 V 487.559 h 36.48 c 13.64,0 23.49,0.773 29.55,2.312 7.92,1.981 14.49,5.34 19.71,10.07 5.23,4.731 9.5,12.508 12.8,23.348 3.3,10.84 4.95,25.609 4.95,44.32 0,18.7 -1.65,33.063 -4.95,43.082 -3.3,10.008 -7.92,17.821 -13.87,23.438 -5.94,5.609 -13.48,9.402 -22.61,11.383 -6.82,1.539 -20.19,2.308 -40.11,2.308 z m -48.86,40.942 h 89.3 c 20.14,0 35.49,-1.551 46.05,-4.621 14.19,-4.192 26.35,-11.61 36.47,-22.289 10.13,-10.672 17.83,-23.743 23.12,-39.204 5.27,-15.457 7.92,-34.519 7.92,-57.187 0,-19.91 -2.49,-37.082 -7.44,-51.492 -6.04,-17.61 -14.68,-31.848 -25.9,-42.75 -8.48,-8.25 -19.93,-14.688 -34.34,-19.309 -10.78,-3.41 -25.2,-5.121 -43.24,-5.121 h -91.94 v 241.973" /><path
         id="path122"
         style="fill:#254a9b;fill-opacity:1;fill-rule:nonzero;stroke:none"
         d="m 5177.85,688.762 h 48.86 V 557.711 c 0,-20.801 0.6,-34.281 1.82,-40.441 2.09,-9.911 7.07,-17.86 14.94,-23.848 7.86,-6 18.62,-9 32.26,-9 13.87,0 24.32,2.84 31.36,8.508 7.04,5.66 11.28,12.621 12.7,20.871 1.44,8.258 2.15,21.949 2.15,41.097 v 133.864 h 48.86 v -127.09 c 0,-29.051 -1.32,-49.57 -3.96,-61.57 -2.64,-11.993 -7.51,-22.11 -14.6,-30.364 -7.1,-8.258 -16.6,-14.828 -28.48,-19.726 -11.88,-4.891 -27.4,-7.34 -46.54,-7.34 -23.11,0 -40.64,2.668 -52.57,8 -11.94,5.34 -21.38,12.269 -28.31,20.797 -6.93,8.531 -11.5,17.472 -13.69,26.82 -3.2,13.859 -4.8,34.332 -4.8,61.402 v 129.071" /><path
         id="path124"
         style="fill:#254a9b;fill-opacity:1;fill-rule:nonzero;stroke:none"
         d="M 5553.77,446.789 V 647.82 h -71.8 v 40.942 h 192.28 V 647.82 h -71.63 V 446.789 h -48.85" /><path
         id="path126"
         style="fill:#254a9b;fill-opacity:1;fill-rule:nonzero;stroke:none"
         d="m 5746.35,586.43 h 36.14 c 23.44,0 38.08,0.992 43.91,2.968 5.83,1.981 10.4,5.391 13.7,10.231 3.3,4.84 4.95,10.891 4.95,18.152 0,8.149 -2.18,14.719 -6.52,19.731 -4.35,5.008 -10.48,8.168 -18.4,9.488 -3.97,0.551 -15.85,0.82 -35.66,0.82 h -38.12 z m -48.86,-139.641 v 241.973 h 102.83 c 25.85,0 44.64,-2.18 56.36,-6.524 11.72,-4.347 21.1,-12.078 28.14,-23.187 7.05,-11.121 10.57,-23.821 10.57,-38.129 0,-18.16 -5.34,-33.152 -16.01,-44.981 -10.68,-11.82 -26.64,-19.281 -47.87,-22.359 10.57,-6.16 19.28,-12.934 26.17,-20.301 6.87,-7.383 16.14,-20.472 27.81,-39.289 l 29.54,-47.203 h -58.43 l -35.32,52.652 c -12.54,18.821 -21.12,30.668 -25.75,35.571 -4.62,4.898 -9.51,8.25 -14.69,10.07 -5.17,1.816 -13.37,2.719 -24.59,2.719 h -9.9 V 446.789 h -48.86" /><path
         id="path128"
         style="fill:#254a9b;fill-opacity:1;fill-rule:nonzero;stroke:none"
         d="m 6061.23,542.52 -33.34,89.789 -32.68,-89.789 z m 89.96,-95.731 h -53.15 l -21.13,54.961 h -96.71 l -19.98,-54.961 h -51.82 l 94.25,241.973 h 51.66 l 96.88,-241.973" /><path
         id="path130"
         style="fill:#254a9b;fill-opacity:1;fill-rule:nonzero;stroke:none"
         d="m 6169.14,446.789 v 241.973 h 47.54 l 99.02,-161.59 v 161.59 h 45.39 V 446.789 h -49.02 l -97.54,157.793 V 446.789 h -45.39" /><path
         id="path132"
         style="fill:#254a9b;fill-opacity:1;fill-rule:nonzero;stroke:none"
         d="m 6391.93,525.52 47.53,4.621 c 2.86,-15.95 8.67,-27.672 17.42,-35.153 8.75,-7.476 20.54,-11.218 35.41,-11.218 15.73,0 27.58,3.32 35.56,9.98 7.98,6.66 11.96,14.441 11.96,23.359 0,5.711 -1.68,10.582 -5.02,14.602 -3.36,4.019 -9.22,7.508 -17.58,10.48 -5.73,1.981 -18.77,5.5 -39.12,10.559 -26.2,6.492 -44.56,14.469 -55.13,23.941 -14.85,13.309 -22.29,29.539 -22.29,48.688 0,12.32 3.5,23.84 10.49,34.582 6.98,10.719 17.05,18.891 30.21,24.5 13.14,5.621 29.01,8.418 47.61,8.418 30.37,0 53.23,-6.66 68.58,-19.969 15.35,-13.308 23.41,-31.078 24.18,-53.308 l -48.86,-2.141 c -2.09,12.43 -6.57,21.371 -13.45,26.809 -6.87,5.449 -17.19,8.179 -30.94,8.179 -14.2,0 -25.32,-2.918 -33.34,-8.75 -5.18,-3.738 -7.77,-8.75 -7.77,-15.019 0,-5.731 2.42,-10.621 7.27,-14.688 6.16,-5.183 21.12,-10.57 44.89,-16.183 23.77,-5.61 41.35,-11.411 52.74,-17.411 11.38,-6 20.3,-14.187 26.73,-24.589 6.44,-10.399 9.66,-23.25 9.66,-38.539 0,-13.872 -3.86,-26.848 -11.55,-38.95 -7.71,-12.109 -18.6,-21.101 -32.69,-26.988 -14.08,-5.883 -31.63,-8.832 -52.64,-8.832 -30.6,0 -54.08,7.07 -70.48,21.211 -16.4,14.141 -26.19,34.738 -29.38,61.809" /><path
         id="path134"
         style="fill:#254a9b;fill-opacity:1;fill-rule:nonzero;stroke:none"
         d="m 6670.17,647.82 v -68.66 h 26.73 c 19.26,0 32.13,1.27 38.63,3.801 6.49,2.531 11.58,6.488 15.26,11.879 3.69,5.402 5.53,11.66 5.53,18.82 0,8.801 -2.58,16.059 -7.76,21.789 -5.17,5.711 -11.71,9.289 -19.63,10.723 -5.84,1.098 -17.56,1.648 -35.16,1.648 z m -48.86,-201.031 v 241.973 h 78.4 c 29.71,0 49.07,-1.223 58.1,-3.641 13.86,-3.629 25.47,-11.519 34.83,-23.68 9.34,-12.16 14.02,-27.859 14.02,-47.121 0,-14.859 -2.7,-27.351 -8.09,-37.468 -5.39,-10.122 -12.23,-18.071 -20.54,-23.852 -8.31,-5.77 -16.76,-9.602 -25.33,-11.469 -11.67,-2.312 -28.56,-3.461 -50.68,-3.461 h -31.85 v -91.281 h -48.86" /><path
         id="path136"
         style="fill:#254a9b;fill-opacity:1;fill-rule:nonzero;stroke:none"
         d="m 6878.76,567.941 c 0,-27.402 6.33,-48.171 18.98,-62.3 12.65,-14.149 28.72,-21.219 48.2,-21.219 19.47,0 35.46,7.019 47.95,21.047 12.48,14.031 18.73,35.07 18.73,63.133 0,27.73 -6.09,48.41 -18.24,62.058 -12.16,13.641 -28.31,20.461 -48.44,20.461 -20.14,0 -36.37,-6.902 -48.69,-20.711 -12.33,-13.808 -18.49,-34.629 -18.49,-62.469 z m -50.34,-1.652 c 0,24.641 3.69,45.332 11.06,62.063 5.5,12.32 13.01,23.378 22.53,33.168 9.51,9.789 19.94,17.062 31.27,21.789 15.08,6.382 32.46,9.57 52.16,9.57 35.65,0 64.18,-11.059 85.58,-33.168 21.4,-22.121 32.11,-52.871 32.11,-92.27 0,-39.062 -10.63,-69.621 -31.86,-91.679 -21.24,-22.063 -49.63,-33.09 -85.17,-33.09 -35.98,0 -64.59,10.969 -85.83,32.918 -21.24,21.949 -31.85,52.18 -31.85,90.699" /><path
         id="path138"
         style="fill:#254a9b;fill-opacity:1;fill-rule:nonzero;stroke:none"
         d="m 7141.82,586.43 h 36.14 c 23.44,0 38.08,0.992 43.91,2.968 5.83,1.981 10.4,5.391 13.7,10.231 3.3,4.84 4.95,10.891 4.95,18.152 0,8.149 -2.18,14.719 -6.53,19.731 -4.34,5.008 -10.47,8.168 -18.39,9.488 -3.97,0.551 -15.85,0.82 -35.66,0.82 h -38.12 z m -48.86,-139.641 v 241.973 h 102.83 c 25.85,0 44.64,-2.18 56.36,-6.524 11.72,-4.347 21.1,-12.078 28.14,-23.187 7.04,-11.121 10.57,-23.821 10.57,-38.129 0,-18.16 -5.34,-33.152 -16.02,-44.981 -10.67,-11.82 -26.63,-19.281 -47.86,-22.359 10.57,-6.16 19.28,-12.934 26.16,-20.301 6.88,-7.383 16.15,-20.472 27.82,-39.289 l 29.54,-47.203 h -58.43 l -35.32,52.652 c -12.54,18.821 -21.12,30.668 -25.75,35.571 -4.62,4.898 -9.52,8.25 -14.69,10.07 -5.17,1.816 -13.37,2.719 -24.59,2.719 h -9.9 V 446.789 h -48.86" /><path
         id="path140"
         style="fill:#254a9b;fill-opacity:1;fill-rule:nonzero;stroke:none"
         d="M 7382.93,446.789 V 647.82 h -71.8 v 40.942 h 192.28 V 647.82 h -71.63 V 446.789 h -48.85" /><path
         id="path142"
         style="fill:#254a9b;fill-opacity:1;fill-rule:nonzero;stroke:none"
         d="M 1248.67,225.289 V 65.0313 h 36.48 c 13.64,0 23.49,0.7695 29.55,2.3085 7.92,1.9805 14.49,5.3399 19.71,10.0704 5.23,4.7304 9.5,12.5117 12.8,23.3518 3.3,10.84 4.95,25.609 4.95,44.32 0,18.707 -1.65,33.066 -4.95,43.078 -3.3,10.012 -7.92,17.82 -13.87,23.442 -5.94,5.609 -13.48,9.398 -22.61,11.378 -6.82,1.54 -20.19,2.309 -40.1,2.309 z m -48.86,40.941 h 89.3 c 20.14,0 35.49,-1.55 46.05,-4.621 14.2,-4.187 26.35,-11.609 36.47,-22.289 10.13,-10.672 17.83,-23.738 23.12,-39.199 5.27,-15.461 7.92,-34.519 7.92,-57.18 0,-19.921 -2.48,-37.089 -7.44,-51.4996 -6.04,-17.6094 -14.68,-31.8516 -25.9,-42.75 -8.48,-8.25 -19.93,-14.6914 -34.34,-19.3125 -10.78,-3.4101 -25.2,-5.1172 -43.24,-5.1172 h -91.94 V 266.23" /><path
         id="path144"
         style="fill:#254a9b;fill-opacity:1;fill-rule:nonzero;stroke:none"
         d="M 1435.63,24.2617 V 266.23 h 179.42 v -40.941 h -130.56 v -53.641 h 121.48 V 130.879 H 1484.49 V 65.0313 h 135.18 V 24.2617 h -184.04" /><path
         id="path146"
         style="fill:#254a9b;fill-opacity:1;fill-rule:nonzero;stroke:none"
         d="M 1739.42,24.2617 V 264.25 h 48.86 V 65.0313 h 121.48 V 24.2617 h -170.34" /><path
         id="path148"
         style="fill:#254a9b;fill-opacity:1;fill-rule:nonzero;stroke:none"
         d="m 2064.38,119.988 -33.34,89.793 -32.68,-89.793 z m 89.96,-95.7263 h -53.16 l -21.12,54.9571 h -96.72 l -19.97,-54.9571 h -51.83 l 94.25,241.9683 h 51.66 l 96.89,-241.9683" /><path
         id="path150"
         style="fill:#254a9b;fill-opacity:1;fill-rule:nonzero;stroke:none"
         d="M 2246.04,24.2617 V 264.25 h 48.85 V 65.0313 h 121.48 V 24.2617 h -170.33" /><path
         id="path152"
         style="fill:#254a9b;fill-opacity:1;fill-rule:nonzero;stroke:none"
         d="m 2483.18,145.41 c 0,-27.398 6.33,-48.1717 18.99,-62.3006 12.64,-14.1406 28.71,-21.211 48.19,-21.211 19.47,0 35.46,7.0118 47.95,21.043 12.48,14.0274 18.73,35.0706 18.73,63.1286 0,27.731 -6.08,48.41 -18.24,62.059 -12.16,13.641 -28.3,20.461 -48.44,20.461 -20.14,0 -36.37,-6.899 -48.69,-20.711 -12.32,-13.809 -18.49,-34.629 -18.49,-62.469 z m -50.34,-1.648 c 0,24.636 3.69,45.328 11.07,62.058 5.49,12.321 13,23.379 22.53,33.172 9.51,9.797 19.94,17.059 31.27,21.789 15.07,6.379 32.46,9.571 52.15,9.571 35.66,0 64.18,-11.063 85.58,-33.172 21.41,-22.121 32.11,-52.871 32.11,-92.27 0,-39.058 -10.63,-69.6209 -31.86,-91.6795 -21.24,-22.0586 -49.63,-33.0899 -85.16,-33.0899 -35.99,0 -64.59,10.9688 -85.83,32.918 -21.24,21.9609 -31.86,52.1834 -31.86,90.7034" /><path
         id="path154"
         style="fill:#254a9b;fill-opacity:1;fill-rule:nonzero;stroke:none"
         d="m 2809.79,113.219 v 40.773 h 105.3 V 57.6016 c -10.24,-9.9024 -25.07,-18.6211 -44.48,-26.1602 -19.43,-7.5312 -39.1,-11.3008 -59.01,-11.3008 -25.31,0 -47.37,5.3086 -66.19,15.9297 -18.81,10.6094 -32.95,25.8008 -42.41,45.5508 -9.46,19.7499 -14.2,41.2309 -14.2,64.4489 0,25.2 5.28,47.59 15.85,67.18 10.56,19.582 26.01,34.602 46.38,45.059 15.51,8.023 34.82,12.043 57.93,12.043 30.03,0 53.5,-6.301 70.4,-18.891 16.88,-12.609 27.75,-30.02 32.59,-52.25 l -48.52,-9.07 c -3.42,11.879 -9.83,21.257 -19.23,28.14 -9.41,6.879 -21.16,10.309 -35.24,10.309 -21.35,0 -38.33,-6.758 -50.92,-20.289 -12.6,-13.539 -18.9,-33.621 -18.9,-60.25 0,-28.719 6.38,-50.2619 19.15,-64.6213 12.76,-14.3594 29.48,-21.5313 50.18,-21.5313 10.23,0 20.49,2 30.78,6.0235 10.28,4.0078 19.11,8.8789 26.48,14.6094 v 30.6877 h -55.94" /><path
         id="path156"
         style="fill:#254a9b;fill-opacity:1;fill-rule:nonzero;stroke:none"
         d="M 2950.21,24.2617 V 266.23 h 48.85 V 24.2617 h -48.85" /><path
         id="path158"
         style="fill:#254a9b;fill-opacity:1;fill-rule:nonzero;stroke:none"
         d="m 3024.79,102.992 47.52,4.617 c 2.87,-15.9488 8.68,-27.6676 17.42,-35.1481 8.75,-7.4804 20.54,-11.2226 35.41,-11.2226 15.73,0 27.58,3.3203 35.56,9.9805 7.98,6.6601 11.97,14.4414 11.97,23.3632 0,5.707 -1.68,10.578 -5.03,14.598 -3.36,4.019 -9.22,7.511 -17.58,10.48 -5.72,1.981 -18.77,5.5 -39.12,10.57 -26.19,6.481 -44.56,14.461 -55.13,23.93 -14.85,13.309 -22.28,29.539 -22.28,48.692 0,12.32 3.49,23.847 10.48,34.578 6.99,10.73 17.05,18.89 30.21,24.5 13.14,5.621 29.01,8.422 47.62,8.422 30.36,0 53.22,-6.661 68.57,-19.973 15.35,-13.309 23.41,-31.078 24.18,-53.309 l -48.86,-2.14 c -2.09,12.429 -6.57,21.371 -13.44,26.812 -6.88,5.449 -17.2,8.18 -30.95,8.18 -14.2,0 -25.31,-2.922 -33.34,-8.75 -5.18,-3.742 -7.77,-8.75 -7.77,-15.024 0,-5.718 2.43,-10.617 7.27,-14.687 6.16,-5.172 21.12,-10.57 44.89,-16.18 23.77,-5.609 41.35,-11.41 52.74,-17.41 11.38,-6 20.3,-14.191 26.74,-24.59 6.43,-10.402 9.65,-23.242 9.65,-38.5427 0,-13.8672 -3.85,-26.8477 -11.55,-38.9492 -7.7,-12.1094 -18.6,-21.0977 -32.68,-26.9883 -14.09,-5.8789 -31.64,-8.832 -52.65,-8.832 -30.6,0 -54.08,7.0703 -70.48,21.2109 -16.4,14.1406 -26.19,34.7422 -29.37,61.8123" /><path
         id="path160"
         style="fill:#254a9b;fill-opacity:1;fill-rule:nonzero;stroke:none"
         d="M 3308.63,24.2617 V 225.289 h -71.79 v 40.941 h 192.27 v -40.941 h -71.63 V 24.2617 h -48.85" /><path
         id="path162"
         style="fill:#254a9b;fill-opacity:1;fill-rule:nonzero;stroke:none"
         d="M 3450.7,24.2617 V 266.23 h 48.86 V 24.2617 h -48.86" /><path
         id="path164"
         style="fill:#254a9b;fill-opacity:1;fill-rule:nonzero;stroke:none"
         d="m 3693.13,82.5313 c 6.27,7.3671 10.98,16.2773 14.12,26.7307 3.13,10.457 4.7,22.449 4.7,35.98 0,27.949 -6.16,48.828 -18.48,62.637 -12.33,13.812 -28.45,20.711 -48.36,20.711 -19.92,0 -36.07,-6.918 -48.45,-20.789 -12.37,-13.86 -18.56,-34.719 -18.56,-62.559 0,-28.281 6.19,-49.4334 18.56,-63.4607 12.38,-14.0313 28.04,-21.043 46.96,-21.043 7.04,0 13.7,1.1601 19.97,3.4609 -9.9,6.5 -19.97,11.5625 -30.2,15.1914 l 13.7,27.8984 c 16.06,-5.508 31.41,-13.7577 46.04,-24.7577 z m 39.29,-27.5704 c 11.99,-8.582 25.03,-15.4023 39.11,-20.4609 L 3753.54,0 c -7.37,2.19922 -14.58,5.23047 -21.62,9.08203 -1.54,0.76953 -12.38,7.91797 -32.52,21.44927 -15.84,-6.9297 -33.38,-10.3907 -52.64,-10.3907 -37.2,0 -66.33,10.9414 -87.39,32.8399 -21.08,21.8984 -31.62,52.6605 -31.62,92.2615 0,39.508 10.57,70.227 31.69,92.188 21.14,21.949 49.8,32.922 86,32.922 35.87,0 64.31,-10.973 85.33,-32.922 21.02,-21.961 31.52,-52.68 31.52,-92.188 0,-20.902 -2.91,-39.281 -8.75,-55.1209 -4.4,-12.1094 -11.44,-23.832 -21.12,-35.1602" /><path
         id="path166"
         style="fill:#254a9b;fill-opacity:1;fill-rule:nonzero;stroke:none"
         d="m 3791.8,266.23 h 48.85 V 135.18 c 0,-20.801 0.61,-34.282 1.82,-40.4417 2.09,-9.9063 7.07,-17.8477 14.94,-23.8477 7.86,-6 18.63,-8.9922 32.27,-8.9922 13.86,0 24.31,2.8321 31.36,8.5 7.04,5.6602 11.27,12.6211 12.7,20.8829 1.44,8.25 2.15,21.9377 2.15,41.0897 V 266.23 h 48.86 V 139.141 c 0,-29.051 -1.32,-49.5707 -3.97,-61.5707 -2.64,-11.9883 -7.51,-22.1094 -14.6,-30.3594 -7.1,-8.2617 -16.59,-14.832 -28.47,-19.7304 -11.89,-4.8907 -27.41,-7.3399 -46.55,-7.3399 -23.1,0 -40.63,2.668 -52.57,8 -11.94,5.3399 -21.37,12.2696 -28.31,20.8008 -6.92,8.5274 -11.49,17.4688 -13.69,26.8203 -3.19,13.8594 -4.79,34.3283 -4.79,61.3983 v 129.07" /><path
         id="path168"
         style="fill:#254a9b;fill-opacity:1;fill-rule:nonzero;stroke:none"
         d="M 4027.78,24.2617 V 266.23 h 179.42 v -40.941 h -130.56 v -53.641 h 121.48 V 130.879 H 4076.64 V 65.0313 h 135.18 V 24.2617 h -184.04" /><path
         id="path170"
         style="fill:#254a9b;fill-opacity:1;fill-rule:nonzero;stroke:none"
         d="M 4330.25,24.2617 V 266.23 h 179.42 v -40.941 h -130.56 v -53.641 h 121.48 V 130.879 H 4379.11 V 65.0313 h 135.18 V 24.2617 h -184.04" /><path
         id="path172"
         style="fill:#254a9b;fill-opacity:1;fill-rule:nonzero;stroke:none"
         d="M 4601.74,24.2617 V 225.289 h -71.8 v 40.941 h 192.28 v -40.941 h -71.63 V 24.2617 h -48.85" /><path
         id="path174"
         style="fill:#254a9b;fill-opacity:1;fill-rule:nonzero;stroke:none"
         d="M 4879.44,225.289 V 65.0313 h 36.48 c 13.64,0 23.49,0.7695 29.55,2.3085 7.92,1.9805 14.49,5.3399 19.72,10.0704 5.22,4.7304 9.49,12.5117 12.79,23.3518 3.3,10.84 4.95,25.609 4.95,44.32 0,18.707 -1.65,33.066 -4.95,43.078 -3.3,10.012 -7.92,17.82 -13.87,23.442 -5.94,5.609 -13.48,9.398 -22.61,11.378 -6.82,1.54 -20.19,2.309 -40.1,2.309 z m -48.85,40.941 h 89.29 c 20.14,0 35.49,-1.55 46.05,-4.621 14.2,-4.187 26.36,-11.609 36.47,-22.289 10.13,-10.672 17.83,-23.738 23.12,-39.199 5.27,-15.461 7.92,-34.519 7.92,-57.18 0,-19.921 -2.48,-37.089 -7.43,-51.4996 -6.05,-17.6094 -14.69,-31.8516 -25.91,-42.75 -8.48,-8.25 -19.92,-14.6914 -34.34,-19.3125 -10.78,-3.4101 -25.19,-5.1172 -43.24,-5.1172 h -91.93 V 266.23" /><path
         id="path176"
         style="fill:#254a9b;fill-opacity:1;fill-rule:nonzero;stroke:none"
         d="M 5066.42,24.2617 V 266.23 h 179.41 v -40.941 h -130.56 v -53.641 h 121.48 V 130.879 H 5115.27 V 65.0313 h 135.18 V 24.2617 h -184.03" /><path
         id="path178"
         style="fill:#254a9b;fill-opacity:1;fill-rule:nonzero;stroke:none"
         d="M 5370.21,24.2617 V 264.25 h 48.85 V 65.0313 h 121.48 V 24.2617 h -170.33" /><path
         id="path180"
         style="fill:#254a9b;fill-opacity:1;fill-rule:nonzero;stroke:none"
         d="m 5566.26,180.242 -8.75,45.047 v 40.941 h 50.51 v -40.941 l -7.6,-45.047 h -34.16" /><path
         id="path182"
         style="fill:#254a9b;fill-opacity:1;fill-rule:nonzero;stroke:none"
         d="M 5638.84,24.2617 V 266.23 h 179.41 V 225.289 H 5687.7 v -53.641 h 121.47 V 130.879 H 5687.7 V 65.0313 h 135.17 V 24.2617 h -184.03" /><path
         id="path184"
         style="fill:#254a9b;fill-opacity:1;fill-rule:nonzero;stroke:none"
         d="m 5984.09,119.988 -33.34,89.793 -32.67,-89.793 z m 89.96,-95.7263 h -53.15 l -21.12,54.9571 h -96.72 l -19.97,-54.9571 h -51.83 l 94.25,241.9683 h 51.66 l 96.88,-241.9683" /><path
         id="path186"
         style="fill:#254a9b;fill-opacity:1;fill-rule:nonzero;stroke:none"
         d="m 6091.17,266.23 h 48.86 V 135.18 c 0,-20.801 0.6,-34.282 1.82,-40.4417 2.09,-9.9063 7.07,-17.8477 14.94,-23.8477 7.86,-6 18.62,-8.9922 32.26,-8.9922 13.87,0 24.32,2.8321 31.36,8.5 7.04,5.6602 11.28,12.6211 12.71,20.8829 1.43,8.25 2.14,21.9377 2.14,41.0897 V 266.23 h 48.86 V 139.141 c 0,-29.051 -1.32,-49.5707 -3.96,-61.5707 -2.64,-11.9883 -7.51,-22.1094 -14.6,-30.3594 -7.1,-8.2617 -16.6,-14.832 -28.48,-19.7304 -11.88,-4.8907 -27.4,-7.3399 -46.54,-7.3399 -23.11,0 -40.64,2.668 -52.57,8 -11.94,5.3399 -21.38,12.2696 -28.31,20.8008 -6.93,8.5274 -11.5,17.4688 -13.69,26.8203 -3.2,13.8594 -4.8,34.3283 -4.8,61.3983 v 129.07" /></g></g></svg>
